<svg width="364" height="366" viewBox="0 0 364 366" fill="none" xmlns="http://www.w3.org/2000/svg">
<path d="M140.141 54.6581C139.116 54.9994 138.155 54.9612 137.257 54.5436C136.371 54.1006 135.764 53.3858 135.436 52.3991C135.101 51.3934 135.158 50.4574 135.607 49.591C136.075 48.7183 136.822 48.1114 137.846 47.7701C138.89 47.4225 139.851 47.4607 140.73 47.8847C141.609 48.3087 142.216 49.0235 142.551 50.0292C142.88 51.0159 142.823 51.9519 142.38 52.8372C141.931 53.7036 141.184 54.3105 140.141 54.6581Z" fill="#1AA170"/>
<path d="M186.195 55.4176L182.024 35.1971L184.506 35.4057L187.903 53.3635L194.012 36.2049L196.733 36.4336L199.886 54.4311L206.239 37.2328L208.601 37.4314L201.142 56.6742L198.183 56.4254L195.761 43.3365L195.119 38.7968L195.089 38.7942L193.698 43.1631L189.155 55.6664L186.195 55.4176Z" fill="#1AA170"/>
<path d="M218.515 61.1425C217.153 60.7412 216.022 60.0849 215.123 59.1736C214.243 58.2679 213.67 57.1711 213.403 55.8832C213.142 54.5761 213.24 53.1455 213.698 51.5916C214.156 50.0377 214.846 48.792 215.769 47.8545C216.697 46.8979 217.767 46.2748 218.978 45.9854C220.189 45.6959 221.457 45.7462 222.781 46.1363C224.123 46.532 225.18 47.1561 225.951 48.0086C226.74 48.8668 227.237 49.8682 227.442 51.0127C227.653 52.1381 227.577 53.3147 227.215 54.5425C227.119 54.8687 227.022 55.1632 226.924 55.4261C226.825 55.6891 226.726 55.9204 226.625 56.1201L215 52.6944L215.602 50.6513L226.22 53.7802L224.973 53.6627C225.38 52.2815 225.31 51.1037 224.763 50.1293C224.235 49.1607 223.357 48.4955 222.129 48.1337C221.189 47.8567 220.309 47.837 219.488 48.0748C218.693 48.299 217.981 48.767 217.354 49.4789C216.753 50.1772 216.282 51.1019 215.943 52.253C215.609 53.3849 215.513 54.4198 215.653 55.3578C215.794 56.2958 216.145 57.0872 216.705 57.7319C217.291 58.3631 218.073 58.8229 219.051 59.1112C220.106 59.4221 221.019 59.4722 221.79 59.2616C222.58 59.0566 223.279 58.6681 223.885 58.0962L225.384 59.6951C224.828 60.24 224.191 60.6674 223.474 60.9774C222.776 61.2931 222.004 61.4722 221.158 61.5146C220.336 61.5436 219.455 61.4195 218.515 61.1425Z" fill="#1AA170"/>
<path d="M252.928 51.4422L244.427 67.41C244.07 68.0809 243.944 68.6145 244.05 69.0109C244.166 69.3896 244.497 69.7247 245.045 70.0161C245.398 70.204 245.703 70.3326 245.961 70.4019C246.218 70.4711 246.579 70.5385 247.043 70.604L245.711 72.2744C245.363 72.2476 245.007 72.1714 244.644 72.0458C244.271 71.9378 243.908 71.7898 243.555 71.6018C242.478 71.0285 241.829 70.3096 241.61 69.445C241.408 68.5899 241.627 67.562 242.266 66.3616L250.81 50.3143L252.928 51.4422Z" fill="#1AA170"/>
<path d="M274.675 74.1711C275.476 74.8346 276.074 75.5384 276.471 76.2825C276.883 77.0393 277.121 77.8337 277.184 78.6658C277.248 79.4979 277.157 80.3444 276.911 81.2055L274.466 80.5825C274.832 79.6391 274.921 78.7644 274.732 77.9583C274.571 77.1495 274.09 76.4134 273.289 75.7498C272.519 75.1118 271.71 74.7402 270.862 74.6351C270.027 74.5145 269.189 74.6641 268.347 75.0839C267.519 75.4882 266.722 76.1524 265.956 77.0765C265.203 77.9851 264.699 78.8917 264.443 79.7964C264.187 80.7011 264.189 81.5602 264.45 82.3738C264.724 83.172 265.245 83.8901 266.015 84.5281C266.616 85.0257 267.209 85.3608 267.793 85.5333C268.393 85.7185 268.978 85.7489 269.549 85.6244C270.135 85.5126 270.692 85.2473 271.221 84.8284L272.433 86.8454C271.584 87.3369 270.718 87.6453 269.835 87.7707C268.967 87.9089 268.095 87.8486 267.219 87.5899C266.37 87.3285 265.538 86.8597 264.722 86.1834C263.644 85.2902 262.879 84.2539 262.428 83.0747C261.976 81.8955 261.882 80.6615 262.144 79.3727C262.42 78.0685 263.074 76.7927 264.108 75.5452C265.142 74.2978 266.267 73.4252 267.485 72.9276C268.715 72.4145 269.951 72.2702 271.194 72.4946C272.437 72.719 273.597 73.2778 274.675 74.1711Z" fill="#1AA170"/>
<path d="M293.859 93.8801C294.748 94.9876 295.288 96.1566 295.48 97.3869C295.685 98.6329 295.521 99.8669 294.989 101.089C294.472 102.299 293.582 103.41 292.319 104.424C291.055 105.438 289.769 106.072 288.461 106.327C287.168 106.57 285.936 106.456 284.764 105.986C283.604 105.531 282.58 104.751 281.691 103.643C280.815 102.551 280.275 101.382 280.07 100.136C279.865 98.8901 280.021 97.6624 280.538 96.4528C281.07 95.2308 281.968 94.1128 283.232 93.099C284.495 92.0851 285.773 91.457 287.066 91.2146C288.374 90.9597 289.615 91.0673 290.787 91.5372C291.959 92.0072 292.983 92.7881 293.859 93.8801ZM292.244 95.1755C291.606 94.38 290.882 93.8453 290.073 93.5716C289.263 93.2979 288.398 93.2742 287.477 93.5004C286.584 93.7297 285.67 94.2199 284.734 94.9709C283.813 95.7094 283.137 96.4959 282.704 97.3305C282.283 98.1807 282.119 99.0305 282.211 99.88C282.303 100.729 282.668 101.552 283.306 102.347C283.944 103.143 284.668 103.678 285.478 103.951C286.287 104.225 287.146 104.241 288.054 103.999C288.976 103.773 289.896 103.291 290.817 102.552C291.753 101.801 292.423 101.007 292.828 100.169C293.261 99.3345 293.431 98.4925 293.34 97.643C293.248 96.7936 292.883 95.9711 292.244 95.1755Z" fill="#1AA170"/>
<path d="M291.187 115.783L304.537 108.943L305.494 110.812L303.48 112.012C304.545 112.073 305.461 112.391 306.227 112.964C307.002 113.556 307.599 114.261 308.019 115.08C308.502 116.023 308.744 117.023 308.746 118.078C308.747 119.134 308.417 120.112 307.755 121.013C308.506 120.988 309.201 121.137 309.839 121.462C310.495 121.778 311.067 122.192 311.555 122.706C312.07 123.229 312.469 123.766 312.752 124.318C313.19 125.172 313.427 126.073 313.463 127.021C313.508 127.987 313.285 128.91 312.792 129.792C312.3 130.673 311.467 131.415 310.292 132.017L301.748 136.395L300.654 134.259L308.984 129.99C310.194 129.37 310.912 128.621 311.135 127.742C311.359 126.863 311.243 125.979 310.787 125.089C310.432 124.395 309.93 123.832 309.281 123.4C308.633 122.968 307.884 122.734 307.034 122.697C306.193 122.679 305.292 122.916 304.33 123.408L297.015 127.157L295.92 125.021L304.251 120.752C305.461 120.132 306.178 119.383 306.402 118.504C306.626 117.625 306.51 116.741 306.054 115.851C305.753 115.263 305.283 114.74 304.643 114.282C304.03 113.831 303.281 113.575 302.395 113.512C301.509 113.449 300.514 113.701 299.41 114.266L292.281 117.919L291.187 115.783Z" fill="#1AA170"/>
<path d="M305.259 149.819C304.879 148.451 304.838 147.144 305.136 145.899C305.439 144.674 306.066 143.607 307.018 142.699C307.989 141.786 309.256 141.113 310.816 140.679C312.377 140.246 313.8 140.173 315.083 140.46C316.386 140.742 317.481 141.32 318.367 142.195C319.253 143.069 319.881 144.172 320.25 145.501C320.625 146.85 320.654 148.077 320.338 149.182C320.028 150.306 319.441 151.258 318.578 152.037C317.734 152.811 316.696 153.369 315.462 153.711C315.135 153.802 314.833 153.876 314.558 153.931C314.283 153.987 314.034 154.025 313.811 154.045L310.569 142.367L312.621 141.797L315.583 152.464L315.023 151.343C316.41 150.958 317.373 150.275 317.91 149.296C318.453 148.335 318.553 147.239 318.211 146.005C317.949 145.061 317.5 144.303 316.864 143.733C316.253 143.176 315.479 142.82 314.543 142.665C313.632 142.523 312.599 142.613 311.442 142.934C310.305 143.25 309.376 143.715 308.655 144.331C307.933 144.946 307.447 145.662 307.196 146.479C306.97 147.31 306.994 148.217 307.266 149.2C307.561 150.259 308.001 151.061 308.588 151.604C309.18 152.166 309.879 152.553 310.685 152.765L310.121 154.883C309.364 154.699 308.665 154.385 308.022 153.94C307.385 153.515 306.825 152.955 306.341 152.259C305.882 151.577 305.521 150.763 305.259 149.819Z" fill="#1AA170"/>
<path d="M327.908 204.346L312.925 202.318C312.192 202.219 311.619 202.353 311.206 202.721C310.792 203.089 310.542 203.6 310.453 204.254C310.375 204.829 310.407 205.338 310.549 205.781C310.691 206.224 310.908 206.636 311.199 207.019L309.094 207.582C308.74 207.07 308.487 206.48 308.335 205.814C308.18 205.167 308.158 204.438 308.268 203.625C308.37 202.872 308.594 202.186 308.94 201.567C309.306 200.95 309.803 200.483 310.431 200.164C311.077 199.868 311.877 199.774 312.831 199.883L327.576 201.879L327.908 204.346ZM322.955 209.185L320.903 208.908L322.36 198.146L324.411 198.424L322.955 209.185Z" fill="#1AA170"/>
<path d="M317.331 231.076C316.861 232.416 316.155 233.493 315.212 234.307C314.263 235.14 313.129 235.654 311.811 235.849C310.511 236.05 309.097 235.883 307.568 235.347C306.039 234.811 304.821 234.055 303.912 233.079C303.023 232.11 302.467 231.004 302.246 229.761C302.018 228.537 302.139 227.255 302.609 225.915C303.073 224.594 303.779 223.517 304.728 222.684C305.677 221.851 306.801 221.334 308.101 221.132C309.42 220.938 310.843 221.108 312.372 221.644C313.901 222.18 315.11 222.933 316 223.902C316.908 224.877 317.473 225.987 317.694 227.23C317.915 228.473 317.794 229.755 317.331 231.076ZM315.377 230.391C315.715 229.429 315.786 228.532 315.59 227.7C315.394 226.868 314.956 226.122 314.277 225.46C313.61 224.823 312.71 224.306 311.578 223.909C310.464 223.519 309.439 223.361 308.502 223.435C307.558 223.528 306.75 223.838 306.077 224.365C305.405 224.892 304.9 225.637 304.563 226.6C304.225 227.562 304.154 228.459 304.35 229.291C304.546 230.123 304.987 230.86 305.673 231.503C306.352 232.165 307.248 232.691 308.362 233.082C309.494 233.479 310.523 233.628 311.448 233.528C312.385 233.454 313.19 233.153 313.863 232.626C314.535 232.099 315.04 231.354 315.377 230.391Z" fill="#1AA170"/>
<path d="M282.439 285.831L274.299 268.79C273.833 267.848 273.55 267.017 273.449 266.3C273.319 265.584 273.355 264.938 273.557 264.363C273.73 263.789 274.061 263.237 274.548 262.707C275.007 262.206 275.507 261.809 276.047 261.517C276.558 261.227 277.08 261.027 277.613 260.919L278.714 262.826C278.179 262.877 277.703 263.011 277.288 263.227C276.844 263.444 276.473 263.714 276.176 264.039C275.824 264.422 275.611 264.891 275.535 265.446C275.46 266.001 275.655 266.75 276.12 267.693L277.029 269.586L280.674 270.895L292.298 275.09L290.452 277.101L280.711 273.25L278.115 272.13L279.573 274.934L284.183 283.93L282.439 285.831Z" fill="#1AA170"/>
<path d="M265.966 299.878C264.815 300.71 263.62 301.19 262.382 301.32C261.127 301.461 259.903 301.235 258.709 300.642C257.528 300.064 256.462 299.119 255.514 297.806C254.565 296.493 253.997 295.176 253.809 293.857C253.632 292.553 253.808 291.328 254.337 290.181C254.849 289.046 255.681 288.063 256.832 287.232C257.967 286.412 259.162 285.932 260.417 285.79C261.671 285.649 262.89 285.867 264.072 286.444C265.265 287.037 266.336 287.991 267.285 289.304C268.233 290.617 268.796 291.926 268.972 293.229C269.161 294.549 268.99 295.782 268.462 296.928C267.933 298.075 267.101 299.058 265.966 299.878ZM264.754 298.2C265.581 297.603 266.152 296.907 266.466 296.112C266.78 295.318 266.848 294.455 266.669 293.524C266.485 292.62 266.042 291.682 265.339 290.709C264.648 289.753 263.897 289.037 263.085 288.562C262.257 288.1 261.417 287.892 260.564 287.941C259.711 287.99 258.871 288.313 258.044 288.91C257.217 289.507 256.647 290.203 256.332 290.997C256.018 291.792 255.959 292.649 256.154 293.569C256.333 294.5 256.769 295.444 257.459 296.401C258.162 297.373 258.921 298.083 259.738 298.53C260.549 299.005 261.381 299.218 262.234 299.169C263.087 299.12 263.927 298.797 264.754 298.2Z" fill="#1AA170"/>
<path d="M234.557 300.123C235.433 299.729 236.336 299.52 237.268 299.495C238.182 299.479 239.049 299.724 239.87 300.232C240.681 300.767 241.353 301.627 241.886 302.812L245.924 311.786L243.735 312.77L239.956 304.371C239.332 302.985 238.6 302.163 237.761 301.905C236.929 301.665 235.966 301.792 234.872 302.284C234.361 302.514 233.896 302.822 233.478 303.207C233.067 303.611 232.753 304.082 232.534 304.619C232.305 305.183 232.212 305.805 232.256 306.487C232.282 307.178 232.475 307.924 232.836 308.727L236.185 316.168L233.996 317.153L227.841 303.474L229.756 302.612L230.828 304.63C230.933 303.596 231.31 302.703 231.958 301.95C232.596 301.224 233.463 300.615 234.557 300.123Z" fill="#1AA170"/>
<path d="M212.335 308.108L215.611 322.746L213.708 323.172L212.849 320.844C212.64 321.833 212.195 322.64 211.515 323.263C210.815 323.891 209.899 324.332 208.767 324.585C208.514 324.642 208.236 324.684 207.935 324.71C207.614 324.741 207.333 324.722 207.092 324.653L207.023 322.424C207.255 322.454 207.503 322.46 207.765 322.442C208.028 322.424 208.393 322.363 208.862 322.258C209.467 322.123 210.042 321.81 210.588 321.319C211.114 320.832 211.502 320.182 211.75 319.368C212.003 318.573 212.007 317.63 211.762 316.537L209.993 308.632L212.335 308.108Z" fill="#1AA170"/>
<path d="M147.811 312.708C148.431 311.684 149.199 310.842 150.117 310.179C151.031 309.537 152.047 309.106 153.166 308.889C154.266 308.667 155.425 308.671 156.644 308.899C158.492 309.246 160.018 309.949 161.224 311.009C162.406 312.085 163.23 313.44 163.697 315.074C164.145 316.704 164.175 318.551 163.788 320.615C163.402 322.68 162.705 324.39 161.698 325.748C160.671 327.102 159.413 328.057 157.926 328.613C156.414 329.184 154.755 329.3 152.946 328.962C151.688 328.726 150.601 328.339 149.684 327.801C148.764 327.283 148.024 326.615 147.465 325.798C146.882 324.997 146.477 324.066 146.248 323.006L148.782 322.352C149.005 323.553 149.475 324.516 150.194 325.241C150.89 325.982 151.886 326.474 153.184 326.717C154.501 326.964 155.719 326.866 156.84 326.425C157.956 326.004 158.909 325.266 159.696 324.213C160.464 323.157 161.002 321.803 161.312 320.151C161.617 318.52 161.615 317.065 161.305 315.786C160.992 314.526 160.403 313.49 159.538 312.677C158.669 311.883 157.566 311.361 156.23 311.111C154.932 310.868 153.741 310.98 152.656 311.449C151.568 311.936 150.684 312.798 150.005 314.035L147.811 312.708Z" fill="#1AA170"/>
<path d="M127.758 316.371C126.443 315.834 125.403 315.074 124.638 314.092C123.854 313.102 123.398 311.943 123.271 310.616C123.136 309.308 123.374 307.904 123.987 306.404C124.6 304.905 125.416 303.726 126.437 302.868C127.449 302.029 128.582 301.53 129.835 301.372C131.069 301.207 132.344 301.393 133.658 301.93C134.954 302.459 135.994 303.219 136.778 304.209C137.562 305.199 138.021 306.348 138.156 307.657C138.284 308.984 138.041 310.397 137.428 311.897C136.816 313.396 136.003 314.566 134.99 315.405C133.97 316.263 132.834 316.771 131.581 316.928C130.328 317.086 129.054 316.901 127.758 316.371ZM128.541 314.455C129.485 314.841 130.377 314.957 131.218 314.803C132.058 314.65 132.826 314.251 133.522 313.606C134.191 312.972 134.753 312.1 135.207 310.989C135.653 309.896 135.863 308.88 135.837 307.94C135.792 306.993 135.523 306.17 135.03 305.472C134.538 304.774 133.819 304.232 132.875 303.846C131.931 303.46 131.039 303.344 130.198 303.498C129.358 303.651 128.599 304.054 127.922 304.706C127.226 305.351 126.655 306.22 126.209 307.312C125.755 308.423 125.554 309.443 125.607 310.372C125.633 311.312 125.893 312.131 126.385 312.829C126.878 313.527 127.596 314.069 128.541 314.455Z" fill="#1AA170"/>
<path d="M119.464 295.924L111.112 308.383L109.367 307.214L110.546 305.187C109.585 305.65 108.63 305.817 107.682 305.687C106.717 305.546 105.853 305.219 105.089 304.706C104.208 304.116 103.511 303.36 102.998 302.438C102.484 301.516 102.298 300.5 102.44 299.391C101.795 299.778 101.115 299.984 100.4 300.01C99.6729 300.052 98.9714 299.967 98.2952 299.755C97.5913 299.548 96.9818 299.272 96.4669 298.926C95.6695 298.392 95.025 297.719 94.5334 296.908C94.0252 296.086 93.7724 295.17 93.775 294.16C93.7776 293.151 94.1464 292.098 94.8814 291.001L100.227 283.027L102.221 284.364L97.0085 292.138C96.2512 293.268 95.9879 294.271 96.2187 295.148C96.4494 296.025 96.98 296.742 97.8107 297.299C98.4585 297.733 99.1707 297.982 99.9471 298.045C100.724 298.108 101.492 297.949 102.253 297.568C102.997 297.177 103.67 296.532 104.272 295.635L108.849 288.807L110.842 290.144L105.63 297.918C104.873 299.048 104.61 300.051 104.84 300.928C105.071 301.805 105.602 302.522 106.432 303.079C106.981 303.447 107.646 303.676 108.428 303.767C109.182 303.863 109.961 303.723 110.767 303.348C111.572 302.973 112.32 302.271 113.01 301.241L117.471 294.587L119.464 295.924Z" fill="#1AA170"/>
<path d="M72.8988 286.828C72.534 286.457 72.233 286.066 71.9958 285.654C71.7586 285.242 71.6272 284.866 71.6016 284.526L73.4333 283.607C73.4876 283.891 73.5916 284.153 73.7453 284.395C73.8847 284.65 74.0736 284.899 74.3122 285.142C74.9155 285.754 75.5352 286.085 76.1712 286.132C76.793 286.194 77.4246 285.909 78.066 285.277L79.6908 283.678L80.2467 283.131L90.3805 273.155L92.0641 274.865L79.5786 287.156C79.1082 287.619 78.6034 287.976 78.064 288.226C77.5246 288.476 76.9721 288.599 76.4064 288.595C75.8267 288.576 75.241 288.423 74.6493 288.135C74.0575 287.848 73.474 287.412 72.8988 286.828ZM76.1762 280.107L77.6513 278.655L84.9542 286.074L83.479 287.526L76.1762 280.107Z" fill="#1AA170"/>
<path d="M61.6454 261.588C60.8734 260.396 60.4539 259.178 60.387 257.935C60.3093 256.674 60.5971 255.463 61.2503 254.301C61.8868 253.15 62.8848 252.134 64.2444 251.254C65.6041 250.373 66.9476 249.872 68.275 249.751C69.5857 249.64 70.8002 249.878 71.9187 250.464C73.0262 251.034 73.966 251.914 74.7381 253.106C75.4993 254.281 75.9188 255.498 75.9965 256.759C76.0742 258.019 75.7949 259.225 75.1584 260.376C74.5052 261.538 73.4987 262.559 72.1391 263.44C70.7795 264.321 69.4443 264.816 68.1337 264.927C66.8062 265.048 65.5833 264.815 64.4649 264.229C63.3464 263.643 62.4066 262.763 61.6454 261.588ZM63.3827 260.462C63.9373 261.318 64.6034 261.923 65.3809 262.278C66.1584 262.632 67.0168 262.743 67.9561 262.611C68.8677 262.473 69.8271 262.078 70.8342 261.426C71.8245 260.784 72.5773 260.07 73.0925 259.284C73.5968 258.48 73.8462 257.651 73.8408 256.797C73.8354 255.943 73.5554 255.087 73.0008 254.231C72.4462 253.375 71.7802 252.77 71.0026 252.416C70.2251 252.062 69.3721 251.959 68.4438 252.108C67.5045 252.24 66.5397 252.626 65.5493 253.268C64.5422 253.92 63.7949 254.643 63.3074 255.435C62.7922 256.222 62.5373 257.042 62.5427 257.897C62.5482 258.751 62.8281 259.606 63.3827 260.462Z" fill="#1AA170"/>
<path d="M63.5471 232.454L49.574 237.908L48.8649 236.092L51.0365 234.89C50.0267 234.833 49.1622 234.516 48.4427 233.938C47.716 233.341 47.1418 232.502 46.72 231.422C46.6254 231.18 46.5422 230.912 46.4704 230.618C46.3913 230.305 46.3677 230.024 46.3994 229.776L48.5922 229.371C48.5977 229.605 48.6291 229.85 48.6864 230.107C48.7437 230.364 48.8596 230.716 49.0341 231.163C49.2596 231.74 49.6563 232.262 50.2244 232.727C50.7852 233.174 51.4867 233.458 52.3287 233.58C53.1522 233.71 54.0856 233.571 55.1289 233.163L62.6744 230.218L63.5471 232.454Z" fill="#1AA170"/>
<path d="M36.5882 207.527L51.4916 204.977C52.221 204.852 52.7277 204.552 53.0117 204.077C53.2957 203.603 53.382 203.04 53.2707 202.389C53.1729 201.818 52.99 201.342 52.722 200.962C52.454 200.581 52.1238 200.252 51.7313 199.974L53.5708 198.807C54.0624 199.19 54.4804 199.676 54.825 200.267C55.1661 200.837 55.4058 201.527 55.5441 202.335C55.6723 203.084 55.6639 203.806 55.519 204.5C55.3543 205.198 55.0199 205.793 54.5157 206.285C53.9884 206.761 53.2533 207.09 52.3104 207.271L37.6436 209.781L36.5882 207.527ZM39.8662 201.427L41.9066 201.077L43.7384 211.782L41.698 212.131L39.8662 201.427Z" fill="#1AA170"/>
<path d="M55.0097 157.92L54.0657 158.125L57.2978 144.678L59.4855 145.204L55.8467 160.343L53.7757 159.845L40.9796 143.378L41.9237 143.173L38.8528 155.949L36.6651 155.424L40.1426 140.956L42.2137 141.453L55.0097 157.92Z" fill="#1AA170"/>
<path d="M52.1739 122.721C52.7769 121.435 53.5883 120.435 54.6083 119.721C55.6367 118.988 56.8167 118.592 58.1483 118.532C59.4618 118.463 60.8519 118.772 62.3186 119.46C63.7853 120.148 64.9211 121.023 65.7262 122.086C66.5131 123.14 66.9537 124.296 67.0479 125.555C67.1506 126.796 66.9005 128.06 66.2975 129.345C65.703 130.613 64.8915 131.613 63.8631 132.346C62.8347 133.078 61.6637 133.479 60.3502 133.548C59.0186 133.608 57.6195 133.294 56.1528 132.606C54.6861 131.918 53.5593 131.047 52.7723 129.993C51.9673 128.931 51.5177 127.77 51.4234 126.511C51.3292 125.252 51.5794 123.989 52.1739 122.721ZM54.048 123.6C53.6148 124.523 53.4536 125.409 53.5643 126.256C53.6751 127.103 54.0348 127.89 54.6436 128.618C55.2427 129.319 56.0855 129.924 57.1719 130.433C58.2402 130.934 59.2444 131.195 60.1844 131.217C61.1328 131.22 61.9682 130.993 62.6904 130.536C63.4126 130.08 63.9903 129.39 64.4234 128.466C64.8565 127.543 65.0177 126.658 64.907 125.81C64.7963 124.963 64.4323 124.185 63.8151 123.476C63.2063 122.748 62.3678 122.134 61.2994 121.633C60.213 121.124 59.2046 120.872 58.2743 120.877C57.3343 120.856 56.5032 121.074 55.781 121.53C55.0588 121.987 54.4811 122.677 54.048 123.6Z" fill="#1AA170"/>
<path d="M76.0116 111.459L63.9914 102.487L65.2476 100.804L68.0658 102.645L67.568 102.76C67.1184 102.025 66.8628 101.298 66.8011 100.578C66.7235 99.8464 66.8059 99.1342 67.0483 98.4416C67.3027 97.7331 67.6573 97.0743 68.1119 96.4652C68.7579 95.5998 69.5125 94.9401 70.3754 94.4861C71.2224 94.0202 72.138 93.8302 73.1222 93.916C74.1183 93.9857 75.1373 94.4094 76.179 95.1871L83.872 100.93L82.4363 102.853L75.4165 97.6128C74.0862 96.6198 72.9493 96.2203 72.0058 96.4145C71.0582 96.5806 70.2733 97.0804 69.6511 97.9138C69.2204 98.4907 68.926 99.1694 68.7677 99.9498C68.6095 100.73 68.6913 101.54 69.0132 102.379C69.347 103.202 70.0268 103.997 71.0526 104.763L77.4473 109.536L76.0116 111.459Z" fill="#1AA170"/>
<path d="M97.3757 87.8505C96.3146 88.7941 95.1596 89.4064 93.9106 89.6874C92.6766 89.9551 91.4426 89.8615 90.2084 89.4067C88.961 88.9369 87.799 88.0968 86.7224 86.8862C85.6459 85.6756 84.9539 84.4309 84.6463 83.1521C84.3255 81.8583 84.3626 80.6209 84.7576 79.4399C85.1526 78.259 85.8658 77.2099 86.897 76.2929C87.9432 75.3625 89.0318 74.7959 90.1628 74.5931C91.3088 74.3769 92.4216 74.4846 93.5013 74.9162C94.5677 75.3329 95.5262 76.0194 96.3768 76.9759C96.6027 77.23 96.8013 77.4683 96.9724 77.6908C97.1435 77.9133 97.2872 78.1201 97.4035 78.3111L88.3467 86.3652L86.9313 84.7735L95.2035 77.4172L94.4438 78.4139C93.4869 77.3378 92.4504 76.7742 91.3342 76.7229C90.233 76.6584 89.2042 77.0514 88.2477 77.902C87.5154 78.5532 87.033 79.29 86.8007 80.1122C86.57 80.9061 86.5909 81.7573 86.8635 82.6658C87.1378 83.546 87.6736 84.4345 88.471 85.3312C89.2552 86.213 90.0825 86.8423 90.9529 87.2191C91.8233 87.596 92.6803 87.717 93.524 87.5823C94.3694 87.4193 95.1732 86.999 95.9354 86.3211C96.7574 85.5902 97.2829 84.8418 97.5119 84.0761C97.7559 83.297 97.7956 82.499 97.631 81.6818L99.7809 81.2553C99.9489 82.016 99.9748 82.7825 99.8587 83.5549C99.7575 84.3139 99.5011 85.0639 99.0893 85.8047C98.6792 86.5173 98.108 87.1993 97.3757 87.8505Z" fill="#1AA170"/>
</svg>
